<svg width="26" height="26" viewBox="0 0 26 26" fill="none" xmlns="http://www.w3.org/2000/svg">
<path d="M16.8705 8.20367V15.9623L15.9089 15.5298L15.8521 15.5043L15.7945 15.4805L14.2682 19.1778C15.7945 15.4805 15.7938 15.4802 15.7931 15.4799L15.7916 15.4793L15.7887 15.4781L15.7826 15.4756L15.77 15.4705L15.7424 15.4594C15.7231 15.4517 15.7017 15.4433 15.6784 15.4344C15.6319 15.4167 15.5772 15.3965 15.515 15.3749C15.3919 15.3322 15.2329 15.2814 15.0458 15.2321C14.6953 15.1396 14.1337 15.0219 13.4631 15.0219C12.7924 15.0219 12.2308 15.1396 11.8803 15.2321C11.6932 15.2814 11.5343 15.3322 11.4112 15.3749C11.349 15.3965 11.2942 15.4167 11.2477 15.4344C11.2244 15.4433 11.203 15.4517 11.1837 15.4594L11.1562 15.4705L11.1435 15.4756L11.1375 15.4781L11.1345 15.4793L11.133 15.4799C11.1323 15.4802 11.1316 15.4805 12.6579 19.1778L11.1316 15.4805L11.0741 15.5043L11.0173 15.5298L10.0557 15.9623V8.20367H16.8705Z" stroke="#1C93E3" stroke-width="8"/>
</svg>
