<svg xmlns="http://www.w3.org/2000/svg" width="150" height="120" viewBox="0 0 150 120" fill="none">
  <path fill-rule="evenodd" clip-rule="evenodd" d="M81.2066 0C67.49 0 54.8829 4.88928 44.9283 13.0694H28.8398C26.7495 13.0694 25.0393 14.8338 25.0393 16.9903C25.0393 19.1467 26.7495 20.9111 28.8398 20.9111H37.0277H39.427C41.5173 20.9111 43.2275 22.6755 43.2275 24.8319C43.2275 25.9089 42.7993 26.8917 42.1102 27.6C41.4235 28.311 40.4709 28.7528 39.427 28.7528H34.3081H31.4816H17.6918C15.6016 28.7528 13.8914 30.5171 13.8914 32.6736C13.8914 34.8301 15.6016 36.5944 17.6918 36.5944H27.5638C24.5838 43.8197 22.9331 51.7699 22.9331 60.1194C22.9331 63.1489 23.151 66.1261 23.5691 69.0354C23.7439 70.2508 23.9542 71.4559 24.1999 72.6478C31.3701 71.516 38.9761 70.6063 46.9165 69.9424L47.5144 70.5044L48.0769 69.8483C57.616 69.0824 67.6289 68.6747 77.9559 68.6747C99.8972 68.6747 120.43 70.5149 137.985 73.7143C138.662 70.6874 139.118 67.5742 139.333 64.3905C139.432 62.979 139.48 61.5544 139.48 60.1194C139.48 26.9152 113.391 0 81.2066 0" fill="#F1F2F7"/>
  <path fill-rule="evenodd" clip-rule="evenodd" d="M6.1529 28.5714H3.84974C1.73238 28.5714 0 30.3714 0 32.5714C0 34.7714 1.73238 36.5714 3.84974 36.5714H6.1529C8.27026 36.5714 10.0026 34.7714 10.0026 32.5714C10.0026 30.3714 8.27026 28.5714 6.1529 28.5714" fill="#F1F2F7"/>
  <mask id="mask0_672_4381" style="mask-type:luminance" maskUnits="userSpaceOnUse" x="24" y="68" width="126" height="52">
    <path fill-rule="evenodd" clip-rule="evenodd" d="M150 68.7611V120H87.0608H24.1216V68.7611H150V68.7611Z" fill="white"/>
  </mask>
  <g mask="url(#mask0_672_4381)">
    <path fill-rule="evenodd" clip-rule="evenodd" d="M150 88.5715C150 90.7143 148.29 92.4676 146.2 92.4676H121.931C120.888 92.4676 119.936 92.9065 119.249 93.613C118.56 94.3169 118.132 95.2935 118.132 96.3637C118.132 98.5065 119.842 100.26 121.931 100.26H126.44C127.484 100.26 128.436 100.699 129.123 101.405C129.812 102.109 130.24 103.086 130.24 104.156C130.24 106.299 128.53 108.052 126.44 108.052H116.073C106.333 115.553 94.2305 120 81.1145 120C53.1019 120 29.7069 99.7273 24.1216 72.7092C31.29 71.5845 38.8942 70.6806 46.8326 70.0208L47.4302 70.5793L47.9928 69.9273C57.5293 69.1663 67.5401 68.7611 77.8647 68.7611C99.8004 68.7611 120.328 70.5897 137.879 73.7689C137.026 77.5559 135.82 81.2027 134.3 84.6754H146.2C147.247 84.6754 148.194 85.1143 148.883 85.8208C149.572 86.5247 150 87.5013 150 88.5715" fill="#E8EBF2"/>
  </g>
  <path fill-rule="evenodd" clip-rule="evenodd" d="M138.925 64.2128C138.71 67.4572 138.254 70.6297 137.579 73.7143C120.047 70.4539 99.5414 68.5789 77.6292 68.5789C67.3159 68.5789 57.3163 68.9942 47.7898 69.7747L54.3963 61.9034L64.6735 68.7997L78.5857 64.8497L102.519 68.5789L112.909 64.8497L115.54 68.5789L121.819 63.7869L127.686 69.3165L136.939 61.7143L138.925 64.2128Z" fill="#E0E2EE"/>
  <path fill-rule="evenodd" clip-rule="evenodd" d="M104.818 67.657C107.449 63.7234 108.957 59.0585 108.918 54.0662C108.81 40.1808 96.7807 29.023 82.0495 29.1438C67.3182 29.265 55.4639 40.6197 55.5718 54.5052C55.6796 68.3903 67.7091 79.5484 82.4401 79.4275C87.7033 79.3843 92.599 77.9063 96.7133 75.3915L107.719 78.0563L104.818 67.657Z" fill="#D8DBEA"/>
  <path fill-rule="evenodd" clip-rule="evenodd" d="M74.4644 53.6916C74.4766 55.2694 73.2426 56.5588 71.7083 56.5713C70.1734 56.5842 68.9195 55.3149 68.9076 53.7372C68.8953 52.1592 70.1291 50.8701 71.6637 50.8572C73.198 50.8447 74.4519 52.1136 74.4644 53.6916" fill="#BEC0D6"/>
  <path fill-rule="evenodd" clip-rule="evenodd" d="M84.4656 53.6914C84.4778 55.2694 83.2438 56.5588 81.7092 56.5713C80.1747 56.5839 78.9208 55.315 78.9088 53.7372C78.8963 52.1592 80.1303 50.8698 81.6649 50.8572C83.1992 50.8447 84.4531 52.1136 84.4656 53.6914" fill="#BEC0D6"/>
  <path fill-rule="evenodd" clip-rule="evenodd" d="M94.469 53.6914C94.4813 55.2691 93.2472 56.5585 91.7127 56.5713C90.1781 56.5839 88.9242 55.315 88.9122 53.7369C88.8997 52.1589 90.1338 50.8698 91.6683 50.8572C93.2027 50.8444 94.4566 52.1136 94.469 53.6914" fill="#BEC0D6"/>
  <path fill-rule="evenodd" clip-rule="evenodd" d="M47.7911 69.7141L47.2521 70.2856L46.6797 69.7961C47.0483 69.7665 47.4198 69.7392 47.7911 69.7141" fill="#F1F2F7"/>
  <path fill-rule="evenodd" clip-rule="evenodd" d="M52.7905 73.7146C52.7905 75.5291 53.3549 77.2184 54.3248 78.6404L53.2954 82.4342L57.3034 81.4315C58.8102 82.3327 60.5971 82.8572 62.5153 82.8572C67.8863 82.8572 72.2401 78.7637 72.2401 73.7146C72.2401 68.6649 67.8863 64.5715 62.5153 64.5715C57.1443 64.5715 52.7905 68.6649 52.7905 73.7146Z" fill="url(#paint0_linear_672_4381)"/>
  <path fill-rule="evenodd" clip-rule="evenodd" d="M65.0166 73.7144C65.0166 74.3454 65.5139 74.8571 66.1279 74.8571C66.7416 74.8571 67.2394 74.3454 67.2394 73.7144C67.2394 73.0833 66.7416 72.5714 66.1279 72.5714C65.5139 72.5714 65.0166 73.0833 65.0166 73.7144" fill="white"/>
  <path fill-rule="evenodd" clip-rule="evenodd" d="M61.6819 73.7144C61.6819 74.3454 62.1794 74.8571 62.7933 74.8571C63.4069 74.8571 63.9047 74.3454 63.9047 73.7144C63.9047 73.0833 63.4069 72.5714 62.7933 72.5714C62.1794 72.5714 61.6819 73.0833 61.6819 73.7144" fill="white"/>
  <path fill-rule="evenodd" clip-rule="evenodd" d="M57.7942 73.7144C57.7942 74.3454 58.2917 74.8571 58.9056 74.8571C59.5192 74.8571 60.017 74.3454 60.017 73.7144C60.017 73.0833 59.5192 72.5714 58.9056 72.5714C58.2917 72.5714 57.7942 73.0833 57.7942 73.7144" fill="white"/>
  <path fill-rule="evenodd" clip-rule="evenodd" d="M46.6791 69.8616C38.7414 70.5266 31.138 71.4377 23.9703 72.5713C23.7246 71.3775 23.5144 70.1705 23.3396 68.9531L35.6258 59.4285L46.6791 69.8616Z" fill="#E0E2EE"/>
  <path fill-rule="evenodd" clip-rule="evenodd" d="M102.249 89.4285C102.249 90.533 92.5454 91.4285 80.5762 91.4285C68.6067 91.4285 58.9038 90.533 58.9038 89.4285C58.9038 88.3242 68.6067 87.4285 80.5762 87.4285C92.5454 87.4285 102.249 88.3242 102.249 89.4285" fill="#D8DBEA"/>
  <path fill-rule="evenodd" clip-rule="evenodd" d="M137.815 108V108C135.676 108 133.925 106.2 133.925 104C133.925 101.8 135.676 99.9999 137.815 99.9999C139.955 99.9999 141.705 101.8 141.705 104C141.705 106.2 139.955 108 137.815 108" fill="#E1E3EF"/>
  <defs>
    <linearGradient id="paint0_linear_672_4381" x1="62.5153" y1="55.4286" x2="44.2644" y2="74.8412" gradientUnits="userSpaceOnUse">
      <stop stop-color="#FF8960"/>
      <stop offset="1" stop-color="#FF62A5"/>
    </linearGradient>
  </defs>
</svg>