<svg xmlns="http://www.w3.org/2000/svg" width="80" height="80" viewBox="0 0 80 80" fill="none">
  <g clip-path="url(#clip0_382_7054)">
    <path d="M9.22638 62.3966C6.55317 62.3966 3.94155 61.7145 1.57467 60.3854C0.356874 59.7583 -0.114799 58.1892 0.61271 57.0088C3.02988 53.1463 3.90274 48.4249 2.79603 43.9846C1.64892 39.3813 -0.0108409 35.5044 0.00103999 30.6312C0.0422272 13.5343 14.2726 -0.325936 31.352 0.00573966C47.8487 0.338009 61.4442 14.2054 61.4444 30.7064C61.4446 52.257 38.8594 67.3874 18.9206 59.0654C16.1724 61.2226 12.718 62.3966 9.22638 62.3966ZM5.97814 57.135C9.73409 58.3015 13.9584 57.3696 16.8547 54.5695C17.5684 53.8794 18.6359 53.7057 19.5313 54.134C36.6016 62.2956 56.6921 49.5031 56.6919 30.7064C56.6919 16.6802 45.2814 5.03949 31.2564 4.75712C16.8028 4.47 4.78826 16.1759 4.75341 30.6427C4.74212 35.2713 6.54802 38.9704 7.53493 43.3551C8.57471 47.9758 8.027 52.862 5.97814 57.135Z" fill="#98A2B3"/>
    <path d="M70.7738 80C67.2824 80 63.8279 78.8258 61.08 76.669C50.4763 81.0944 37.8631 79.079 29.1688 71.5707C28.1756 70.7129 28.0659 69.2125 28.9235 68.2191C29.7813 67.226 31.2816 67.1159 32.2749 67.9739C39.986 74.6332 51.279 76.1312 60.4691 71.7376C61.3643 71.3091 62.4316 71.483 63.1457 72.173C66.0419 74.973 70.2663 75.9054 74.0223 74.7383C71.6053 69.6971 71.2705 63.9215 73.1435 58.5747C73.1603 58.5266 73.1787 58.4793 73.1985 58.4322C74.5664 55.2075 75.2557 51.7802 75.2472 48.2461C75.2321 42.0149 73.1593 36.2509 69.2525 31.5767C68.4109 30.5696 68.545 29.0712 69.5519 28.2297C70.5586 27.3879 72.0574 27.5222 72.8989 28.5291C77.4604 33.9866 79.9821 40.9846 79.9996 48.2346C80.0097 52.3872 79.2039 56.4172 77.605 60.2143C75.9254 65.0762 76.6979 70.2818 79.3875 74.6118C80.1156 75.7924 79.6435 77.3616 78.4253 77.9892C76.0589 79.3176 73.4466 79.9998 70.7738 80Z" fill="#98A2B3"/>
    <path d="M30.7228 34.5828C32.7993 34.5828 34.4827 32.9003 34.4827 30.8249C34.4827 28.7494 32.7993 27.0669 30.7228 27.0669C28.6463 27.0669 26.9629 28.7494 26.9629 30.8249C26.9629 32.9003 28.6463 34.5828 30.7228 34.5828Z" fill="#98A2B3"/>
    <path d="M16.8703 34.5828C18.9468 34.5828 20.6302 32.9003 20.6302 30.8249C20.6302 28.7494 18.9468 27.0669 16.8703 27.0669C14.7937 27.0669 13.1104 28.7494 13.1104 30.8249C13.1104 32.9003 14.7937 34.5828 16.8703 34.5828Z" fill="#98A2B3"/>
    <path d="M44.5753 34.5828C46.6519 34.5828 48.3353 32.9003 48.3353 30.8249C48.3353 28.7494 46.6519 27.0669 44.5753 27.0669C42.4988 27.0669 40.8154 28.7494 40.8154 30.8249C40.8154 32.9003 42.4988 34.5828 44.5753 34.5828Z" fill="#98A2B3"/>
  </g>
  <defs>
    <clipPath id="clip0_382_7054">
      <rect width="80" height="80" fill="white"/>
    </clipPath>
  </defs>
</svg>