<svg xmlns="http://www.w3.org/2000/svg" width="24" height="22" viewBox="0 0 24 22" fill="none">
  <path d="M19.1429 11V5.7143C19.1429 4.90478 18.6572 3.28573 16.7144 3.28573H15.2858C15.0001 3.28573 14.4286 3.00001 14.0001 2.57144C13.7144 2.28573 13.2286 1.57144 11.8572 1.57144H9.00007C7.62864 1.57144 7.14293 2.28573 6.85721 2.57144C6.42864 3.00001 5.85721 3.28573 5.5715 3.28573H4.14293C2.20007 3.28573 1.71436 4.90478 1.71436 5.7143V14.8572C1.71436 16.8 3.3334 17.2857 4.14293 17.2857H12.8572M16.0001 17.2857H22.2858M19.1429 14.1429V20.4286M13.8572 10C13.8572 11.8936 12.3222 13.4286 10.4286 13.4286C8.53509 13.4286 7.00007 11.8936 7.00007 10C7.00007 8.10647 8.53509 6.57144 10.4286 6.57144C12.3222 6.57144 13.8572 8.10647 13.8572 10Z" stroke="#1C93E3" stroke-width="1.5" stroke-linecap="round"/>
</svg>