<svg xmlns="http://www.w3.org/2000/svg" width="120" height="120" viewBox="0 0 120 120" fill="none">
  <g clip-path="url(#clip0_672_4279)">
    <path d="M107.971 21.973H14.3622C13.0993 21.9738 11.8884 22.4758 10.9954 23.3688C10.1024 24.2618 9.60039 25.4728 9.59961 26.7356V112.622C9.60039 113.885 10.1024 115.096 10.9954 115.989C11.8884 116.882 13.0993 117.384 14.3622 117.385H107.971C109.234 117.384 110.445 116.882 111.338 115.989C112.231 115.096 112.733 113.885 112.734 112.622V26.7356C112.733 25.4727 112.231 24.2617 111.338 23.3687C110.445 22.4756 109.234 21.9737 107.971 21.973Z" fill="#C6C6C6"/>
    <path d="M101.808 87.5398H20.5256C17.8954 87.5398 15.7629 85.4073 15.7629 82.7771V6.89189C15.7629 4.26173 17.8954 2.12927 20.5256 2.12927H101.808C104.439 2.12927 106.571 4.26173 106.571 6.89189V82.7771C106.571 85.4073 104.439 87.5398 101.808 87.5398Z" fill="#F9F9F9"/>
    <path d="M17.2708 84.2845V8.39976C17.2708 5.7696 19.4033 3.63714 22.0334 3.63714H103.316C104.245 3.63714 105.109 3.90714 105.841 4.36698C104.999 3.02435 103.51 2.12927 101.808 2.12927H20.5256C17.8954 2.12927 15.7629 4.26173 15.7629 6.8919V82.7771C15.7629 84.4793 16.658 85.968 18.0006 86.8104C17.5408 86.0776 17.2708 85.214 17.2708 84.285V84.2845Z" fill="url(#paint0_linear_672_4279)"/>
    <path d="M91.8073 18.1627H30.5271V21.655H91.8073V18.1627ZM91.8073 31.4974H30.5271V34.9897H91.8073V31.4974ZM91.8073 44.8351H30.5271V48.3274H91.8073V44.8351ZM91.8073 58.1699H30.5271V61.6627H91.8073V58.1699Z" fill="white"/>
    <path d="M37.8296 46.8977L53.2284 62.297H37.8296V46.8977Z" fill="url(#paint1_linear_672_4279)"/>
    <path d="M112.734 63.5673V28.1363L106.571 21.973V63.5668H112.734V63.5673Z" fill="#C6C6C6"/>
    <path d="M119.952 66.7721L113.312 113.775C112.98 116.125 110.969 117.871 108.597 117.871H13.7365C11.3636 117.871 9.35258 116.125 9.02061 113.775L0.0476578 50.2628C-0.357096 47.3955 1.86782 44.8337 4.76356 44.8337H34.0583C36.4313 44.8337 38.4422 46.5801 38.7742 48.9295L39.9501 57.2469C40.2821 59.5967 42.2931 61.3431 44.666 61.3431H115.237C118.132 61.3431 120.358 63.9049 119.953 66.7721H119.952Z" fill="url(#paint2_linear_672_4279)"/>
    <path d="M96.4266 96.9059H25.9074C25.5209 96.9057 25.1476 96.7647 24.8577 96.5091C24.5677 96.2535 24.3809 95.901 24.3321 95.5175L23.4499 88.532C23.4218 88.3085 23.4416 88.0816 23.508 87.8664C23.5743 87.6511 23.6856 87.4525 23.8346 87.2836C23.9836 87.1147 24.1668 86.9793 24.372 86.8866C24.5773 86.7939 24.7999 86.7459 25.0251 86.7457H97.3089C97.5341 86.7459 97.7567 86.7939 97.962 86.8866C98.1672 86.9793 98.3504 87.1147 98.4994 87.2836C98.6483 87.4525 98.7597 87.6511 98.826 87.8664C98.8923 88.0816 98.9121 88.3085 98.8841 88.532L98.0018 95.5175C97.9531 95.901 97.7663 96.2535 97.4763 96.5091C97.1863 96.7647 96.8131 96.9057 96.4266 96.9059V96.9059Z" fill="#D5D5D5"/>
  </g>
  <defs>
    <linearGradient id="paint0_linear_672_4279" x1="63.9597" y1="47.6221" x2="3.72852" y2="-12.6096" gradientUnits="userSpaceOnUse">
      <stop stop-color="white"/>
    </linearGradient>
    <linearGradient id="paint1_linear_672_4279" x1="48.0035" y1="64.7679" x2="29.3903" y2="46.1551" gradientUnits="userSpaceOnUse">
      <stop stop-color="#C2CECE" stop-opacity="0"/>
      <stop offset="0.179" stop-color="#AFBCBC" stop-opacity="0.179"/>
      <stop offset="1" stop-color="#5B6A6A"/>
    </linearGradient>
    <linearGradient id="paint2_linear_672_4279" x1="60" y1="44.8337" x2="60" y2="117.871" gradientUnits="userSpaceOnUse">
      <stop stop-color="#EEF0F4"/>
      <stop offset="0.927" stop-color="#E4E4E4"/>
    </linearGradient>
    <clipPath id="clip0_672_4279">
      <rect width="120" height="120" fill="white"/>
    </clipPath>
  </defs>
</svg>