<svg xmlns="http://www.w3.org/2000/svg" width="32" height="32" viewBox="0 0 32 32" fill="none">
  <path d="M6.81978 15.2099V20.3457C6.81978 21.2184 6.08908 21.9259 5.18772 21.9259C4.28636 21.9259 3.55566 21.2184 3.55566 20.3457V15.2099C3.55566 14.3371 4.28636 13.6296 5.18772 13.6296C6.08908 13.6296 6.81978 14.3371 6.81978 15.2099Z" fill="#FAFAFA"/>
  <path d="M28.4446 15.4074V20.5432C28.4446 21.4159 27.7139 22.1234 26.8125 22.1234C25.9111 22.1234 25.1804 21.4159 25.1804 20.5432V15.4074C25.1804 14.5347 25.9111 13.8272 26.8125 13.8272C27.7139 13.8272 28.4446 14.5347 28.4446 15.4074Z" fill="#FAFAFA"/>
  <path fill-rule="evenodd" clip-rule="evenodd" d="M23.9564 13.6296V20.9383C23.9564 23.1201 22.1296 24.8889 19.8762 24.8889H12.124C9.87057 24.8889 8.04382 23.1201 8.04382 20.9383V13.6296C8.04382 9.37498 11.606 5.92592 16.0001 5.92592C20.3942 5.92592 23.9564 9.37498 23.9564 13.6296ZM16.6121 8.29629H15.3881C12.684 8.29629 10.4919 10.4188 10.4919 13.037V14.6173C10.4919 15.7082 11.4053 16.5926 12.532 16.5926H19.4682C20.5949 16.5926 21.5083 15.7082 21.5083 14.6173V13.037C21.5083 10.4188 19.3162 8.29629 16.6121 8.29629Z" fill="#FAFAFA"/>
  <path d="M19.8762 13.037C19.8762 13.6916 19.4196 14.2222 18.8562 14.2222C18.2929 14.2222 17.8362 13.6916 17.8362 13.037C17.8362 12.3825 18.2929 11.8518 18.8562 11.8518C19.4196 11.8518 19.8762 12.3825 19.8762 13.037Z" fill="#FAFAFA"/>
  <path d="M14.164 13.037C14.164 13.6916 13.7074 14.2222 13.144 14.2222C12.5807 14.2222 12.124 13.6916 12.124 13.037C12.124 12.3825 12.5807 11.8518 13.144 11.8518C13.7074 11.8518 14.164 12.3825 14.164 13.037Z" fill="#FAFAFA"/>
</svg>