<svg xmlns="http://www.w3.org/2000/svg" width="21" height="20" viewBox="0 0 21 20" fill="none">
  <path d="M10.9167 2.5H7C5.59987 2.5 4.8998 2.5 4.36502 2.77248C3.89462 3.01216 3.51217 3.39462 3.27248 3.86502C3 4.3998 3 5.09987 3 6.5V13.5C3 14.9001 3 15.6002 3.27248 16.135C3.51217 16.6054 3.89462 16.9878 4.36502 17.2275C4.8998 17.5 5.59987 17.5 7 17.5H14.6667C15.4416 17.5 15.8291 17.5 16.147 17.4148C17.0098 17.1836 17.6836 16.5098 17.9148 15.647C18 15.3291 18 14.9416 18 14.1667M16.3333 6.66666V1.66666M13.8333 4.16666H18.8333M9.25 7.08333C9.25 8.00381 8.50381 8.75 7.58333 8.75C6.66286 8.75 5.91667 8.00381 5.91667 7.08333C5.91667 6.16286 6.66286 5.41666 7.58333 5.41666C8.50381 5.41666 9.25 6.16286 9.25 7.08333ZM12.9917 9.93179L5.94262 16.34C5.54614 16.7005 5.34789 16.8807 5.33036 17.0368C5.31516 17.1721 5.36704 17.3064 5.46932 17.3963C5.58732 17.5 5.85523 17.5 6.39107 17.5H14.2133C15.4126 17.5 16.0123 17.5 16.4833 17.2985C17.0745 17.0456 17.5456 16.5745 17.7985 15.9833C18 15.5123 18 14.9126 18 13.7133C18 13.3098 18 13.108 17.9559 12.9201C17.9005 12.684 17.7941 12.4628 17.6444 12.272C17.5252 12.1202 17.3677 11.9941 17.0526 11.742L14.7215 9.87721C14.4062 9.62492 14.2485 9.49878 14.0748 9.45426C13.9218 9.41502 13.7607 9.4201 13.6104 9.46891C13.44 9.52428 13.2905 9.66012 12.9917 9.93179Z" stroke="white" stroke-width="1.66667" stroke-linecap="round" stroke-linejoin="round"/>
</svg>