<svg xmlns="http://www.w3.org/2000/svg" width="20" height="20" viewBox="0 0 20 20" fill="none">
  <g clip-path="url(#clip0_555_2959)">
    <path d="M9.58329 4.16669H9.94529C12.4847 4.16669 13.7543 4.16669 14.2363 4.62276C14.6529 5.01699 14.8376 5.59775 14.7251 6.1602C14.595 6.81087 13.5584 7.54407 11.4852 9.01046L8.09806 11.4062C6.02488 12.8726 4.98828 13.6058 4.85816 14.2565C4.74567 14.819 4.93031 15.3997 5.34693 15.7939C5.82891 16.25 7.09859 16.25 9.63796 16.25H10.4166M6.66663 4.16669C6.66663 5.5474 5.54734 6.66669 4.16663 6.66669C2.78591 6.66669 1.66663 5.5474 1.66663 4.16669C1.66663 2.78598 2.78591 1.66669 4.16663 1.66669C5.54734 1.66669 6.66663 2.78598 6.66663 4.16669ZM18.3333 15.8334C18.3333 17.2141 17.214 18.3334 15.8333 18.3334C14.4526 18.3334 13.3333 17.2141 13.3333 15.8334C13.3333 14.4526 14.4526 13.3334 15.8333 13.3334C17.214 13.3334 18.3333 14.4526 18.3333 15.8334Z" stroke="white" stroke-width="1.5" stroke-linecap="round" stroke-linejoin="round"/>
  </g>
  <defs>
    <clipPath id="clip0_555_2959">
      <rect width="20" height="20" fill="white"/>
    </clipPath>
  </defs>
</svg>  