<svg xmlns="http://www.w3.org/2000/svg" width="20" height="20" viewBox="0 0 20 20" fill="none">
  <g clip-path="url(#clip0_335_1812)">
    <path d="M9.58366 4.16669H9.94566C12.485 4.16669 13.7547 4.16669 14.2367 4.62276C14.6533 5.01699 14.8379 5.59775 14.7255 6.1602C14.5953 6.81087 13.5587 7.54407 11.4856 9.01046L8.09843 11.4062C6.02525 12.8726 4.98865 13.6058 4.85852 14.2565C4.74604 14.819 4.93067 15.3997 5.34729 15.7939C5.82927 16.25 7.09896 16.25 9.63833 16.25H10.417M6.66699 4.16669C6.66699 5.5474 5.5477 6.66669 4.16699 6.66669C2.78628 6.66669 1.66699 5.5474 1.66699 4.16669C1.66699 2.78598 2.78628 1.66669 4.16699 1.66669C5.5477 1.66669 6.66699 2.78598 6.66699 4.16669ZM18.3337 15.8334C18.3337 17.2141 17.2144 18.3334 15.8337 18.3334C14.4529 18.3334 13.3337 17.2141 13.3337 15.8334C13.3337 14.4526 14.4529 13.3334 15.8337 13.3334C17.2144 13.3334 18.3337 14.4526 18.3337 15.8334Z" stroke="#667085" stroke-width="1.5" stroke-linecap="round" stroke-linejoin="round"/>
  </g>
  <defs>
    <clipPath id="clip0_335_1812">
      <rect width="20" height="20" fill="white"/>
    </clipPath>
  </defs>
</svg>