<svg xmlns="http://www.w3.org/2000/svg" width="28" height="28" viewBox="0 0 28 28" fill="none">
  <path d="M23.8517 22.8428C23.8517 23.65 23.1968 23.8518 22.8693 23.8518C19.9949 23.8518 17.5585 23.3659 15.5008 22.5422C10.9675 20.7273 8.27204 17.2726 6.78022 13.7618C5.61637 11.0228 5.18506 8.2496 5.18506 6.19419C5.18506 5.38699 5.84003 5.18518 6.16751 5.18518H9.11488C9.90085 5.18518 10.0973 5.85785 10.0973 6.19419V10.5309C10.0973 11.8048 7.43519 13.794 6.78022 13.7618C8.27204 17.2726 10.9675 20.7273 15.5008 22.5422C16.6798 19.88 18.2845 19.279 18.9394 19.3113H22.8693C23.6552 19.3113 23.8517 19.984 23.8517 20.3203V22.8428Z" fill="#FAFAFA"/>
  <path d="M15.5008 22.5422C7.43072 19.3114 5.18506 10.8842 5.18506 6.19419C5.18506 5.38699 5.84003 5.18518 6.16751 5.18518H9.11488C9.90085 5.18518 10.0973 5.85785 10.0973 6.19419C10.0973 6.19419 10.0973 9.25699 10.0973 10.5309C10.0973 11.8048 7.43519 13.794 6.78022 13.7618M15.5008 22.5422C17.5585 23.3659 19.9949 23.8518 22.8693 23.8518C23.1968 23.8518 23.8517 23.65 23.8517 22.8428C23.8517 22.0356 23.8517 20.8248 23.8517 20.3203C23.8517 19.984 23.6552 19.3113 22.8693 19.3113C22.0833 19.3113 19.9219 19.3113 18.9394 19.3113C18.2845 19.279 16.6798 19.88 15.5008 22.5422Z" stroke="#1C93E3" stroke-width="1.5"/>
</svg>