<svg xmlns="http://www.w3.org/2000/svg" width="26" height="26" viewBox="0 0 26 26" fill="none">
  <path d="M13.0821 8.98766V9.98766H14.0821V8.98766H13.0821ZM4.20361 18.8642H3.20361C3.20361 19.2404 3.41475 19.5848 3.75003 19.7554C4.08531 19.9261 4.48799 19.8941 4.79214 19.6727L4.20361 18.8642ZM13.0821 15.576H14.0821V14.576H13.0821V15.576ZM13.0821 19.9445H12.0821C12.0821 20.3405 12.3159 20.6992 12.6782 20.8592C13.0405 21.0192 13.463 20.9503 13.7558 20.6835L13.0821 19.9445ZM20.8703 12.8457L21.5439 13.5847C21.7465 13.4001 21.8644 13.1405 21.8701 12.8665C21.8758 12.5925 21.7688 12.3282 21.5741 12.1353L20.8703 12.8457ZM13.0821 5.12964L13.7859 4.41925C13.4992 4.13518 13.0698 4.05133 12.6973 4.20665C12.3248 4.36198 12.0821 4.72602 12.0821 5.12964H13.0821ZM13.0821 7.98766C11.4405 7.98766 8.9952 8.99761 6.9882 10.7687C4.93941 12.5767 3.20361 15.3015 3.20361 18.8642H5.20361C5.20361 16.0072 6.58308 13.7937 8.31155 12.2683C10.0818 10.7061 12.0758 9.98766 13.0821 9.98766V7.98766ZM4.79214 19.6727C5.48582 19.1677 6.76827 18.383 8.29368 17.7279C9.82742 17.0693 11.5283 16.576 13.0821 16.576V14.576C11.1469 14.576 9.16133 15.1787 7.50452 15.8902C5.83937 16.6053 4.42711 17.4646 3.61509 18.0557L4.79214 19.6727ZM12.0821 15.576V19.9445H14.0821V15.576H12.0821ZM21.5741 12.1353L13.7859 4.41925L12.3783 5.84003L20.1665 13.5561L21.5741 12.1353ZM12.0821 5.12964V8.98766H14.0821V5.12964H12.0821ZM20.1966 12.1066L12.4085 19.2054L13.7558 20.6835L21.5439 13.5847L20.1966 12.1066Z" fill="#1C93E3"/>
</svg>