<svg xmlns="http://www.w3.org/2000/svg" width="40" height="40" viewBox="0 0 40 40" fill="none">
  <path d="M11.1281 19.2915C11.1281 19.2915 19.266 15.864 22.0883 14.6571C23.1702 14.1743 26.8393 12.6295 26.8393 12.6295C26.8393 12.6295 28.5328 11.9536 28.3916 13.595C28.3446 14.2709 27.9683 16.6363 27.592 19.195C27.0275 22.8157 26.416 26.7742 26.416 26.7742C26.416 26.7742 26.3219 27.8846 25.5222 28.0777C24.7226 28.2708 23.4054 27.4019 23.1702 27.2087C22.982 27.0639 19.6423 24.8915 18.4192 23.8294C18.0899 23.5398 17.7136 22.9605 18.4662 22.2846C20.1597 20.6915 22.1824 18.7122 23.4054 17.4571C23.9699 16.8777 24.5344 15.526 22.1824 17.1674C18.8426 19.5329 15.5498 21.7536 15.5498 21.7536C15.5498 21.7536 14.7972 22.2363 13.386 21.8018C11.9747 21.3674 10.3283 20.7881 10.3283 20.7881C10.3283 20.7881 9.19946 20.0639 11.1281 19.2915Z" fill="white"/>
</svg>