<svg xmlns="http://www.w3.org/2000/svg" width="28" height="28" viewBox="0 0 28 28" fill="none">
  <path d="M2.33325 14H25.6666M2.33325 14C2.33325 20.4433 7.5566 25.6667 13.9999 25.6667M2.33325 14C2.33325 7.55669 7.5566 2.33334 13.9999 2.33334M25.6666 14C25.6666 20.4433 20.4432 25.6667 13.9999 25.6667M25.6666 14C25.6666 7.55669 20.4432 2.33334 13.9999 2.33334M13.9999 2.33334C16.9181 5.52809 18.5765 9.67405 18.6666 14C18.5765 18.326 16.9181 22.4719 13.9999 25.6667M13.9999 2.33334C11.0818 5.52809 9.42337 9.67405 9.33325 14C9.42337 18.326 11.0818 22.4719 13.9999 25.6667" stroke="white" stroke-width="2" stroke-linecap="round" stroke-linejoin="round"/>
</svg>