<svg xmlns="http://www.w3.org/2000/svg" width="28" height="28" viewBox="0 0 28 28" fill="none">
  <path d="M17.9856 13.2716L12.7356 9.77156C12.6038 9.68362 12.4506 9.63312 12.2923 9.62545C12.1341 9.61779 11.9767 9.65324 11.837 9.72802C11.6973 9.80281 11.5806 9.91412 11.4992 10.0501C11.4178 10.186 11.3749 10.3415 11.375 10.5V17.5C11.3749 17.6584 11.4178 17.8139 11.4992 17.9499C11.5806 18.0859 11.6973 18.1972 11.837 18.272C11.9767 18.3468 12.1341 18.3822 12.2923 18.3745C12.4506 18.3669 12.6038 18.3164 12.7356 18.2284L17.9856 14.7284C18.1056 14.6486 18.2041 14.5403 18.2722 14.4132C18.3402 14.2861 18.3759 14.1442 18.3759 14C18.3759 13.8558 18.3402 13.7139 18.2722 13.5868C18.2041 13.4597 18.1056 13.3514 17.9856 13.2716ZM13.125 15.8648V12.1406L15.9228 14L13.125 15.8648ZM25.6298 7.60375C25.5268 7.20053 25.3293 6.8276 25.0538 6.51572C24.7782 6.20384 24.4324 5.96194 24.045 5.81C20.2956 4.36187 14.3281 4.375 14 4.375C13.6719 4.375 7.70437 4.36187 3.955 5.81C3.56755 5.96194 3.22179 6.20384 2.94623 6.51572C2.67067 6.8276 2.47322 7.20053 2.37016 7.60375C2.08688 8.69531 1.75 10.6903 1.75 14C1.75 17.3097 2.08688 19.3047 2.37016 20.3962C2.47306 20.7997 2.67045 21.1728 2.94601 21.4849C3.22158 21.797 3.56743 22.039 3.955 22.1911C7.54688 23.5769 13.1687 23.625 13.9278 23.625H14.0722C14.8313 23.625 20.4564 23.5769 24.045 22.1911C24.4326 22.039 24.7784 21.797 25.054 21.4849C25.3296 21.1728 25.5269 20.7997 25.6298 20.3962C25.9131 19.3025 26.25 17.3097 26.25 14C26.25 10.6903 25.9131 8.69531 25.6298 7.60375ZM23.9356 19.9631C23.9023 20.0973 23.8376 20.2217 23.7469 20.3261C23.6563 20.4304 23.5421 20.5118 23.4139 20.5636C19.9522 21.9002 14.0645 21.8761 14.0077 21.8761H14C13.9409 21.8761 8.05766 21.898 4.59375 20.5636C4.46553 20.5118 4.3514 20.4304 4.26071 20.3261C4.17002 20.2217 4.10536 20.0973 4.07203 19.9631C3.80625 18.9645 3.5 17.1248 3.5 14C3.5 10.8752 3.80625 9.03547 4.06437 8.04234C4.09709 7.90735 4.16147 7.78209 4.25219 7.67691C4.34291 7.57174 4.45737 7.48967 4.58609 7.4375C7.92422 6.14797 13.5177 6.125 13.9759 6.125H14.0055C14.0645 6.125 19.9533 6.10531 23.4117 7.4375C23.5399 7.48924 23.6541 7.57064 23.7448 7.67502C23.8354 7.77939 23.9001 7.90377 23.9334 8.03797C24.1938 9.03547 24.5 10.8752 24.5 14C24.5 17.1248 24.1938 18.9645 23.9356 19.9577V19.9631Z" fill="#FAFAFA"/>
</svg>