<svg width="330" height="336" viewBox="0 0 330 336" fill="none" xmlns="http://www.w3.org/2000/svg">
<path fill-rule="evenodd" clip-rule="evenodd" d="M176.5 9.34999L171.304 1H170.696L165.5 9.34999L160.304 1H159.696L154.5 9.34999L149.304 1H148.696L143.5 9.34999L138.304 1H137.696L132.5 9.34999L127.304 1H126.696L121.5 9.34999L116.304 1H115.696L110.5 9.34999L105.304 1H104.696L99.5 9.34999L94.3039 1H93.6961L88.5 9.34999L83.3039 1H82.6961L77.5 9.34999L72.3039 1H71.6961L66.5 9.34999L61.3039 1H60.6961L55.5 9.34999L50.3039 1H49.6961L44.5 9.34999L39.3039 1H38.6961L33.5 9.34999L28.3039 1H27.6961L22.5 9.34999L17.3039 1H16.6961L11.5 9.34999L6.30385 1H5C2.79086 1 1 2.79087 1 5.00001V158.722C6.52285 158.722 11 162.876 11 168C11 173.124 6.52285 177.278 1 177.278V331C1 333.209 2.79086 335 5 335H6.30383L11.5 326.65L16.6962 335H17.3038L22.5 326.65L27.6962 335H28.3038L33.5 326.65L38.6962 335H39.3038L44.5 326.65L49.6962 335H50.3038L55.5 326.65L60.6962 335H61.3038L66.5 326.65L71.6962 335H72.3038L77.5 326.65L82.6962 335H83.3038L88.5 326.65L93.6962 335H94.3038L99.5 326.65L104.696 335H105.304L110.5 326.65L115.696 335H116.304L121.5 326.65L126.696 335H127.304L132.5 326.65L137.696 335H138.304L143.5 326.65L148.696 335H149.304L154.5 326.65L159.696 335H160.304L165.5 326.65L170.696 335H171.304L176.5 326.65L181.696 335H182.304L187.5 326.65L192.696 335H193.304L198.5 326.65L203.696 335H204.304L209.5 326.65L214.696 335H215.304L220.5 326.65L225.696 335H226.304L231.5 326.65L236.696 335H237.304L242.5 326.65L247.696 335H248.304L253.5 326.65L258.696 335H259.304L264.5 326.65L269.696 335H270.304L275.5 326.65L280.696 335H281.304L286.5 326.65L291.696 335H292.304L297.5 326.65L302.696 335H303.304L308.5 326.65L313.696 335H314.304L319.5 326.65L324.696 335H325C327.209 335 329 333.209 329 331V177.278C323.477 177.278 319 173.124 319 168C319 162.876 323.477 158.722 329 158.722V5C329 2.79086 327.209 1 325 1H324.696L319.5 9.34999L314.304 1H313.696L308.5 9.34999L303.304 1H302.696L297.5 9.34999L292.304 1H291.696L286.5 9.34999L281.304 1H280.696L275.5 9.34999L270.304 1H269.696L264.5 9.34999L259.304 1H258.696L253.5 9.34999L248.304 1H247.696L242.5 9.34999L237.304 1H236.696L231.5 9.34999L226.304 1H225.696L220.5 9.34999L215.304 1H214.696L209.5 9.34999L204.304 1H203.696L198.5 9.34999L193.304 1H192.696L187.5 9.34999L182.304 1H181.696L176.5 9.34999Z" fill="white"/>
<path d="M171.304 1L171.728 0.735827L171.582 0.5H171.304V1ZM176.5 9.34999L176.075 9.61416L176.5 10.2963L176.925 9.61416L176.5 9.34999ZM170.696 1V0.5H170.418L170.272 0.735827L170.696 1ZM165.5 9.34999L165.075 9.61416L165.5 10.2963L165.925 9.61416L165.5 9.34999ZM160.304 1L160.728 0.735827L160.582 0.5H160.304V1ZM159.696 1V0.5H159.418L159.272 0.735827L159.696 1ZM154.5 9.34999L154.075 9.61416L154.5 10.2963L154.925 9.61416L154.5 9.34999ZM149.304 1L149.728 0.735827L149.582 0.5H149.304V1ZM148.696 1V0.5H148.418L148.272 0.735827L148.696 1ZM143.5 9.34999L143.075 9.61416L143.5 10.2963L143.925 9.61416L143.5 9.34999ZM138.304 1L138.728 0.735827L138.582 0.5H138.304V1ZM137.696 1V0.5H137.418L137.272 0.735827L137.696 1ZM132.5 9.34999L132.075 9.61416L132.5 10.2963L132.925 9.61416L132.5 9.34999ZM127.304 1L127.728 0.735827L127.582 0.5H127.304V1ZM126.696 1V0.5H126.418L126.272 0.735827L126.696 1ZM121.5 9.34999L121.075 9.61416L121.5 10.2963L121.925 9.61416L121.5 9.34999ZM116.304 1L116.728 0.735827L116.582 0.5H116.304V1ZM115.696 1V0.5H115.418L115.272 0.735827L115.696 1ZM110.5 9.34999L110.075 9.61416L110.5 10.2963L110.925 9.61416L110.5 9.34999ZM105.304 1L105.728 0.735827L105.582 0.5H105.304V1ZM104.696 1V0.5H104.418L104.272 0.735827L104.696 1ZM99.5 9.34999L99.0755 9.61416L99.5 10.2963L99.9245 9.61416L99.5 9.34999ZM94.3039 1L94.7284 0.735827L94.5816 0.5H94.3039V1ZM93.6961 1V0.5H93.4184L93.2716 0.735827L93.6961 1ZM88.5 9.34999L88.0755 9.61416L88.5 10.2963L88.9245 9.61416L88.5 9.34999ZM83.3039 1L83.7284 0.735827L83.5816 0.5H83.3039V1ZM82.6961 1V0.5H82.4184L82.2716 0.735827L82.6961 1ZM77.5 9.34999L77.0755 9.61416L77.5 10.2963L77.9245 9.61416L77.5 9.34999ZM72.3039 1L72.7284 0.735827L72.5816 0.5H72.3039V1ZM71.6961 1V0.5H71.4184L71.2716 0.735827L71.6961 1ZM66.5 9.34999L66.0755 9.61416L66.5 10.2963L66.9245 9.61416L66.5 9.34999ZM61.3039 1L61.7284 0.735827L61.5816 0.5H61.3039V1ZM60.6961 1V0.5H60.4184L60.2716 0.735827L60.6961 1ZM55.5 9.34999L55.0755 9.61416L55.5 10.2963L55.9245 9.61416L55.5 9.34999ZM50.3039 1L50.7284 0.735827L50.5816 0.5H50.3039V1ZM49.6961 1V0.5H49.4184L49.2716 0.735827L49.6961 1ZM44.5 9.34999L44.0755 9.61416L44.5 10.2963L44.9245 9.61416L44.5 9.34999ZM39.3039 1L39.7284 0.735827L39.5816 0.5H39.3039V1ZM38.6961 1V0.5H38.4184L38.2716 0.735827L38.6961 1ZM33.5 9.34999L33.0755 9.61416L33.5 10.2963L33.9245 9.61416L33.5 9.34999ZM28.3039 1L28.7284 0.735827L28.5816 0.5H28.3039V1ZM27.6961 1V0.5H27.4184L27.2716 0.735827L27.6961 1ZM22.5 9.34999L22.0755 9.61416L22.5 10.2963L22.9245 9.61416L22.5 9.34999ZM17.3039 1L17.7284 0.735827L17.5816 0.5H17.3039V1ZM16.6961 1V0.5H16.4184L16.2716 0.735827L16.6961 1ZM11.5 9.34999L11.0755 9.61416L11.5 10.2963L11.9245 9.61416L11.5 9.34999ZM6.30385 1L6.72837 0.735827L6.58161 0.5H6.30385V1ZM1 158.722H0.5V159.222H1V158.722ZM1 177.278V176.778H0.5V177.278H1ZM6.30383 335V335.5H6.58159L6.72834 335.264L6.30383 335ZM11.5 326.65L11.9245 326.386L11.5 325.704L11.0755 326.386L11.5 326.65ZM16.6962 335L16.2717 335.264L16.4184 335.5H16.6962V335ZM17.3038 335V335.5H17.5816L17.7283 335.264L17.3038 335ZM22.5 326.65L22.9245 326.386L22.5 325.704L22.0755 326.386L22.5 326.65ZM27.6962 335L27.2717 335.264L27.4184 335.5H27.6962V335ZM28.3038 335V335.5H28.5816L28.7283 335.264L28.3038 335ZM33.5 326.65L33.9245 326.386L33.5 325.704L33.0755 326.386L33.5 326.65ZM38.6962 335L38.2717 335.264L38.4184 335.5H38.6962V335ZM39.3038 335V335.5H39.5816L39.7283 335.264L39.3038 335ZM44.5 326.65L44.9245 326.386L44.5 325.704L44.0755 326.386L44.5 326.65ZM49.6962 335L49.2717 335.264L49.4184 335.5H49.6962V335ZM50.3038 335V335.5H50.5816L50.7283 335.264L50.3038 335ZM55.5 326.65L55.9245 326.386L55.5 325.704L55.0755 326.386L55.5 326.65ZM60.6962 335L60.2717 335.264L60.4184 335.5H60.6962V335ZM61.3038 335V335.5H61.5816L61.7283 335.264L61.3038 335ZM66.5 326.65L66.9245 326.386L66.5 325.704L66.0755 326.386L66.5 326.65ZM71.6962 335L71.2717 335.264L71.4184 335.5H71.6962V335ZM72.3038 335V335.5H72.5816L72.7283 335.264L72.3038 335ZM77.5 326.65L77.9245 326.386L77.5 325.704L77.0755 326.386L77.5 326.65ZM82.6962 335L82.2717 335.264L82.4184 335.5H82.6962V335ZM83.3038 335V335.5H83.5816L83.7283 335.264L83.3038 335ZM88.5 326.65L88.9245 326.386L88.5 325.704L88.0755 326.386L88.5 326.65ZM93.6962 335L93.2717 335.264L93.4184 335.5H93.6962V335ZM94.3038 335V335.5H94.5816L94.7283 335.264L94.3038 335ZM99.5 326.65L99.9245 326.386L99.5 325.704L99.0755 326.386L99.5 326.65ZM104.696 335L104.272 335.264L104.418 335.5H104.696V335ZM105.304 335V335.5H105.582L105.728 335.264L105.304 335ZM110.5 326.65L110.925 326.386L110.5 325.704L110.075 326.386L110.5 326.65ZM115.696 335L115.272 335.264L115.418 335.5H115.696V335ZM116.304 335V335.5H116.582L116.728 335.264L116.304 335ZM121.5 326.65L121.925 326.386L121.5 325.704L121.075 326.386L121.5 326.65ZM126.696 335L126.272 335.264L126.418 335.5H126.696V335ZM127.304 335V335.5H127.582L127.728 335.264L127.304 335ZM132.5 326.65L132.925 326.386L132.5 325.704L132.075 326.386L132.5 326.65ZM137.696 335L137.272 335.264L137.418 335.5H137.696V335ZM138.304 335V335.5H138.582L138.728 335.264L138.304 335ZM143.5 326.65L143.925 326.386L143.5 325.704L143.075 326.386L143.5 326.65ZM148.696 335L148.272 335.264L148.418 335.5H148.696V335ZM149.304 335V335.5H149.582L149.728 335.264L149.304 335ZM154.5 326.65L154.925 326.386L154.5 325.704L154.075 326.386L154.5 326.65ZM159.696 335L159.272 335.264L159.418 335.5H159.696V335ZM160.304 335V335.5H160.582L160.728 335.264L160.304 335ZM165.5 326.65L165.925 326.386L165.5 325.704L165.075 326.386L165.5 326.65ZM170.696 335L170.272 335.264L170.418 335.5H170.696V335ZM171.304 335V335.5H171.582L171.728 335.264L171.304 335ZM176.5 326.65L176.925 326.386L176.5 325.704L176.075 326.386L176.5 326.65ZM181.696 335L181.272 335.264L181.418 335.5H181.696V335ZM182.304 335V335.5H182.582L182.728 335.264L182.304 335ZM187.5 326.65L187.925 326.386L187.5 325.704L187.075 326.386L187.5 326.65ZM192.696 335L192.272 335.264L192.418 335.5H192.696V335ZM193.304 335V335.5H193.582L193.728 335.264L193.304 335ZM198.5 326.65L198.925 326.386L198.5 325.704L198.075 326.386L198.5 326.65ZM203.696 335L203.272 335.264L203.418 335.5H203.696V335ZM204.304 335V335.5H204.582L204.728 335.264L204.304 335ZM209.5 326.65L209.925 326.386L209.5 325.704L209.075 326.386L209.5 326.65ZM214.696 335L214.272 335.264L214.418 335.5H214.696V335ZM215.304 335V335.5H215.582L215.728 335.264L215.304 335ZM220.5 326.65L220.925 326.386L220.5 325.704L220.075 326.386L220.5 326.65ZM225.696 335L225.272 335.264L225.418 335.5H225.696V335ZM226.304 335V335.5H226.582L226.728 335.264L226.304 335ZM231.5 326.65L231.925 326.386L231.5 325.704L231.075 326.386L231.5 326.65ZM236.696 335L236.272 335.264L236.418 335.5H236.696V335ZM237.304 335V335.5H237.582L237.728 335.264L237.304 335ZM242.5 326.65L242.925 326.386L242.5 325.704L242.075 326.386L242.5 326.65ZM247.696 335L247.272 335.264L247.418 335.5H247.696V335ZM248.304 335V335.5H248.582L248.728 335.264L248.304 335ZM253.5 326.65L253.925 326.386L253.5 325.704L253.075 326.386L253.5 326.65ZM258.696 335L258.272 335.264L258.418 335.5H258.696V335ZM259.304 335V335.5H259.582L259.728 335.264L259.304 335ZM264.5 326.65L264.925 326.386L264.5 325.704L264.075 326.386L264.5 326.65ZM269.696 335L269.272 335.264L269.418 335.5H269.696V335ZM270.304 335V335.5H270.582L270.728 335.264L270.304 335ZM275.5 326.65L275.925 326.386L275.5 325.704L275.075 326.386L275.5 326.65ZM280.696 335L280.272 335.264L280.418 335.5H280.696V335ZM281.304 335V335.5H281.582L281.728 335.264L281.304 335ZM286.5 326.65L286.925 326.386L286.5 325.704L286.075 326.386L286.5 326.65ZM291.696 335L291.272 335.264L291.418 335.5H291.696V335ZM292.304 335V335.5H292.582L292.728 335.264L292.304 335ZM297.5 326.65L297.925 326.386L297.5 325.704L297.075 326.386L297.5 326.65ZM302.696 335L302.272 335.264L302.418 335.5H302.696V335ZM303.304 335V335.5H303.582L303.728 335.264L303.304 335ZM308.5 326.65L308.925 326.386L308.5 325.704L308.075 326.386L308.5 326.65ZM313.696 335L313.272 335.264L313.418 335.5H313.696V335ZM314.304 335V335.5H314.582L314.728 335.264L314.304 335ZM319.5 326.65L319.925 326.386L319.5 325.704L319.075 326.386L319.5 326.65ZM324.696 335L324.272 335.264L324.418 335.5H324.696V335ZM329 177.278H329.5V176.778H329V177.278ZM329 158.722V159.222H329.5V158.722H329ZM324.696 1V0.5H324.418L324.272 0.735828L324.696 1ZM319.5 9.34999L319.075 9.61416L319.5 10.2963L319.925 9.61416L319.5 9.34999ZM314.304 1L314.728 0.735828L314.582 0.5H314.304V1ZM313.696 1V0.5H313.418L313.272 0.735828L313.696 1ZM308.5 9.34999L308.075 9.61416L308.5 10.2963L308.925 9.61416L308.5 9.34999ZM303.304 1L303.728 0.735828L303.582 0.5H303.304V1ZM302.696 1V0.5H302.418L302.272 0.735828L302.696 1ZM297.5 9.34999L297.075 9.61416L297.5 10.2963L297.925 9.61416L297.5 9.34999ZM292.304 1L292.728 0.735828L292.582 0.5H292.304V1ZM291.696 1V0.5H291.418L291.272 0.735828L291.696 1ZM286.5 9.34999L286.075 9.61416L286.5 10.2963L286.925 9.61416L286.5 9.34999ZM281.304 1L281.728 0.735828L281.582 0.5H281.304V1ZM280.696 1V0.5H280.418L280.272 0.735828L280.696 1ZM275.5 9.34999L275.075 9.61416L275.5 10.2963L275.925 9.61416L275.5 9.34999ZM270.304 1L270.728 0.735828L270.582 0.5H270.304V1ZM269.696 1V0.5H269.418L269.272 0.735828L269.696 1ZM264.5 9.34999L264.075 9.61416L264.5 10.2963L264.925 9.61416L264.5 9.34999ZM259.304 1L259.728 0.735828L259.582 0.5H259.304V1ZM258.696 1V0.5H258.418L258.272 0.735828L258.696 1ZM253.5 9.34999L253.075 9.61416L253.5 10.2963L253.925 9.61416L253.5 9.34999ZM248.304 1L248.728 0.735827L248.582 0.5H248.304V1ZM247.696 1V0.5H247.418L247.272 0.735827L247.696 1ZM242.5 9.34999L242.075 9.61416L242.5 10.2963L242.925 9.61416L242.5 9.34999ZM237.304 1L237.728 0.735827L237.582 0.5H237.304V1ZM236.696 1V0.5H236.418L236.272 0.735827L236.696 1ZM231.5 9.34999L231.075 9.61416L231.5 10.2963L231.925 9.61416L231.5 9.34999ZM226.304 1L226.728 0.735827L226.582 0.5H226.304V1ZM225.696 1V0.5H225.418L225.272 0.735827L225.696 1ZM220.5 9.34999L220.075 9.61416L220.5 10.2963L220.925 9.61416L220.5 9.34999ZM215.304 1L215.728 0.735827L215.582 0.5H215.304V1ZM214.696 1V0.5H214.418L214.272 0.735827L214.696 1ZM209.5 9.34999L209.075 9.61416L209.5 10.2963L209.925 9.61416L209.5 9.34999ZM204.304 1L204.728 0.735827L204.582 0.5H204.304V1ZM203.696 1V0.5H203.418L203.272 0.735827L203.696 1ZM198.5 9.34999L198.075 9.61416L198.5 10.2963L198.925 9.61416L198.5 9.34999ZM193.304 1L193.728 0.735827L193.582 0.5H193.304V1ZM192.696 1V0.5H192.418L192.272 0.735827L192.696 1ZM187.5 9.34999L187.075 9.61416L187.5 10.2963L187.925 9.61416L187.5 9.34999ZM182.304 1L182.728 0.735827L182.582 0.5H182.304V1ZM181.696 1V0.5H181.418L181.272 0.735827L181.696 1ZM170.879 1.26417L176.075 9.61416L176.925 9.08582L171.728 0.735827L170.879 1.26417ZM170.696 1.5H171.304V0.5H170.696V1.5ZM165.925 9.61416L171.121 1.26417L170.272 0.735827L165.075 9.08582L165.925 9.61416ZM159.879 1.26417L165.075 9.61416L165.925 9.08582L160.728 0.735827L159.879 1.26417ZM159.696 1.5H160.304V0.5H159.696V1.5ZM154.925 9.61416L160.121 1.26417L159.272 0.735827L154.075 9.08582L154.925 9.61416ZM148.879 1.26417L154.075 9.61416L154.925 9.08582L149.728 0.735827L148.879 1.26417ZM148.696 1.5H149.304V0.5H148.696V1.5ZM143.925 9.61416L149.121 1.26417L148.272 0.735827L143.075 9.08582L143.925 9.61416ZM137.879 1.26417L143.075 9.61416L143.925 9.08582L138.728 0.735827L137.879 1.26417ZM137.696 1.5H138.304V0.5H137.696V1.5ZM132.925 9.61416L138.121 1.26417L137.272 0.735827L132.075 9.08582L132.925 9.61416ZM126.879 1.26417L132.075 9.61416L132.925 9.08582L127.728 0.735827L126.879 1.26417ZM126.696 1.5H127.304V0.5H126.696V1.5ZM121.925 9.61416L127.121 1.26417L126.272 0.735827L121.075 9.08582L121.925 9.61416ZM115.879 1.26417L121.075 9.61416L121.925 9.08582L116.728 0.735827L115.879 1.26417ZM115.696 1.5H116.304V0.5H115.696V1.5ZM110.925 9.61416L116.121 1.26417L115.272 0.735827L110.075 9.08582L110.925 9.61416ZM104.879 1.26417L110.075 9.61416L110.925 9.08582L105.728 0.735827L104.879 1.26417ZM104.696 1.5H105.304V0.5H104.696V1.5ZM99.9245 9.61416L105.121 1.26417L104.272 0.735827L99.0755 9.08582L99.9245 9.61416ZM93.8793 1.26417L99.0755 9.61416L99.9245 9.08582L94.7284 0.735827L93.8793 1.26417ZM93.6961 1.5H94.3039V0.5H93.6961V1.5ZM88.9245 9.61416L94.1207 1.26417L93.2716 0.735827L88.0755 9.08582L88.9245 9.61416ZM82.8793 1.26417L88.0755 9.61416L88.9245 9.08582L83.7284 0.735827L82.8793 1.26417ZM82.6961 1.5H83.3039V0.5H82.6961V1.5ZM77.9245 9.61416L83.1207 1.26417L82.2716 0.735827L77.0755 9.08582L77.9245 9.61416ZM71.8793 1.26417L77.0755 9.61416L77.9245 9.08582L72.7284 0.735827L71.8793 1.26417ZM71.6961 1.5H72.3039V0.5H71.6961V1.5ZM66.9245 9.61416L72.1207 1.26417L71.2716 0.735827L66.0755 9.08582L66.9245 9.61416ZM60.8793 1.26417L66.0755 9.61416L66.9245 9.08582L61.7284 0.735827L60.8793 1.26417ZM60.6961 1.5H61.3039V0.5H60.6961V1.5ZM55.9245 9.61416L61.1207 1.26417L60.2716 0.735827L55.0755 9.08582L55.9245 9.61416ZM49.8793 1.26417L55.0755 9.61416L55.9245 9.08582L50.7284 0.735827L49.8793 1.26417ZM49.6961 1.5H50.3039V0.5H49.6961V1.5ZM44.9245 9.61416L50.1207 1.26417L49.2716 0.735827L44.0755 9.08582L44.9245 9.61416ZM38.8793 1.26417L44.0755 9.61416L44.9245 9.08582L39.7284 0.735827L38.8793 1.26417ZM38.6961 1.5H39.3039V0.5H38.6961V1.5ZM33.9245 9.61416L39.1207 1.26417L38.2716 0.735827L33.0755 9.08582L33.9245 9.61416ZM27.8793 1.26417L33.0755 9.61416L33.9245 9.08582L28.7284 0.735827L27.8793 1.26417ZM27.6961 1.5H28.3039V0.5H27.6961V1.5ZM22.9245 9.61416L28.1207 1.26417L27.2716 0.735827L22.0755 9.08582L22.9245 9.61416ZM16.8793 1.26417L22.0755 9.61416L22.9245 9.08582L17.7284 0.735827L16.8793 1.26417ZM16.6961 1.5H17.3039V0.5H16.6961V1.5ZM11.9245 9.61416L17.1207 1.26417L16.2716 0.735827L11.0755 9.08582L11.9245 9.61416ZM5.87934 1.26417L11.0755 9.61416L11.9245 9.08582L6.72837 0.735827L5.87934 1.26417ZM5 1.5H6.30385V0.5H5V1.5ZM1.5 5.00001C1.5 3.06701 3.067 1.5 5 1.5V0.5C2.51472 0.5 0.5 2.51472 0.5 5.00001H1.5ZM1.5 158.722V5.00001H0.5V158.722H1.5ZM11.5 168C11.5 162.565 6.76303 158.222 1 158.222V159.222C6.28266 159.222 10.5 163.187 10.5 168H11.5ZM1 177.778C6.76303 177.778 11.5 173.435 11.5 168H10.5C10.5 172.813 6.28266 176.778 1 176.778V177.778ZM1.5 331V177.278H0.5V331H1.5ZM5 334.5C3.067 334.5 1.5 332.933 1.5 331H0.5C0.5 333.485 2.51471 335.5 5 335.5V334.5ZM6.30383 334.5H5V335.5H6.30383V334.5ZM11.0755 326.386L5.87931 334.736L6.72834 335.264L11.9245 326.914L11.0755 326.386ZM17.1207 334.736L11.9245 326.386L11.0755 326.914L16.2717 335.264L17.1207 334.736ZM17.3038 334.5H16.6962V335.5H17.3038V334.5ZM22.0755 326.386L16.8793 334.736L17.7283 335.264L22.9245 326.914L22.0755 326.386ZM28.1207 334.736L22.9245 326.386L22.0755 326.914L27.2717 335.264L28.1207 334.736ZM28.3038 334.5H27.6962V335.5H28.3038V334.5ZM33.0755 326.386L27.8793 334.736L28.7283 335.264L33.9245 326.914L33.0755 326.386ZM39.1207 334.736L33.9245 326.386L33.0755 326.914L38.2717 335.264L39.1207 334.736ZM39.3038 334.5H38.6962V335.5H39.3038V334.5ZM44.0755 326.386L38.8793 334.736L39.7283 335.264L44.9245 326.914L44.0755 326.386ZM50.1207 334.736L44.9245 326.386L44.0755 326.914L49.2717 335.264L50.1207 334.736ZM50.3038 334.5H49.6962V335.5H50.3038V334.5ZM55.0755 326.386L49.8793 334.736L50.7283 335.264L55.9245 326.914L55.0755 326.386ZM61.1207 334.736L55.9245 326.386L55.0755 326.914L60.2717 335.264L61.1207 334.736ZM61.3038 334.5H60.6962V335.5H61.3038V334.5ZM66.0755 326.386L60.8793 334.736L61.7283 335.264L66.9245 326.914L66.0755 326.386ZM72.1207 334.736L66.9245 326.386L66.0755 326.914L71.2717 335.264L72.1207 334.736ZM72.3038 334.5H71.6962V335.5H72.3038V334.5ZM77.0755 326.386L71.8793 334.736L72.7283 335.264L77.9245 326.914L77.0755 326.386ZM83.1207 334.736L77.9245 326.386L77.0755 326.914L82.2717 335.264L83.1207 334.736ZM83.3038 334.5H82.6962V335.5H83.3038V334.5ZM88.0755 326.386L82.8793 334.736L83.7283 335.264L88.9245 326.914L88.0755 326.386ZM94.1207 334.736L88.9245 326.386L88.0755 326.914L93.2717 335.264L94.1207 334.736ZM94.3038 334.5H93.6962V335.5H94.3038V334.5ZM99.0755 326.386L93.8793 334.736L94.7283 335.264L99.9245 326.914L99.0755 326.386ZM105.121 334.736L99.9245 326.386L99.0755 326.914L104.272 335.264L105.121 334.736ZM105.304 334.5H104.696V335.5H105.304V334.5ZM110.075 326.386L104.879 334.736L105.728 335.264L110.925 326.914L110.075 326.386ZM116.121 334.736L110.925 326.386L110.075 326.914L115.272 335.264L116.121 334.736ZM116.304 334.5H115.696V335.5H116.304V334.5ZM121.075 326.386L115.879 334.736L116.728 335.264L121.925 326.914L121.075 326.386ZM127.121 334.736L121.925 326.386L121.075 326.914L126.272 335.264L127.121 334.736ZM127.304 334.5H126.696V335.5H127.304V334.5ZM132.075 326.386L126.879 334.736L127.728 335.264L132.925 326.914L132.075 326.386ZM138.121 334.736L132.925 326.386L132.075 326.914L137.272 335.264L138.121 334.736ZM138.304 334.5H137.696V335.5H138.304V334.5ZM143.075 326.386L137.879 334.736L138.728 335.264L143.925 326.914L143.075 326.386ZM149.121 334.736L143.925 326.386L143.075 326.914L148.272 335.264L149.121 334.736ZM149.304 334.5H148.696V335.5H149.304V334.5ZM154.075 326.386L148.879 334.736L149.728 335.264L154.925 326.914L154.075 326.386ZM160.121 334.736L154.925 326.386L154.075 326.914L159.272 335.264L160.121 334.736ZM160.304 334.5H159.696V335.5H160.304V334.5ZM165.075 326.386L159.879 334.736L160.728 335.264L165.925 326.914L165.075 326.386ZM171.121 334.736L165.925 326.386L165.075 326.914L170.272 335.264L171.121 334.736ZM171.304 334.5H170.696V335.5H171.304V334.5ZM171.728 335.264L176.925 326.914L176.075 326.386L170.879 334.736L171.728 335.264ZM176.075 326.914L181.272 335.264L182.121 334.736L176.925 326.386L176.075 326.914ZM182.304 334.5H181.696V335.5H182.304V334.5ZM187.075 326.386L181.879 334.736L182.728 335.264L187.925 326.914L187.075 326.386ZM193.121 334.736L187.925 326.386L187.075 326.914L192.272 335.264L193.121 334.736ZM193.304 334.5H192.696V335.5H193.304V334.5ZM198.075 326.386L192.879 334.736L193.728 335.264L198.925 326.914L198.075 326.386ZM204.121 334.736L198.925 326.386L198.075 326.914L203.272 335.264L204.121 334.736ZM204.304 334.5H203.696V335.5H204.304V334.5ZM209.075 326.386L203.879 334.736L204.728 335.264L209.925 326.914L209.075 326.386ZM215.121 334.736L209.925 326.386L209.075 326.914L214.272 335.264L215.121 334.736ZM215.304 334.5H214.696V335.5H215.304V334.5ZM220.075 326.386L214.879 334.736L215.728 335.264L220.925 326.914L220.075 326.386ZM226.121 334.736L220.925 326.386L220.075 326.914L225.272 335.264L226.121 334.736ZM226.304 334.5H225.696V335.5H226.304V334.5ZM231.075 326.386L225.879 334.736L226.728 335.264L231.925 326.914L231.075 326.386ZM237.121 334.736L231.925 326.386L231.075 326.914L236.272 335.264L237.121 334.736ZM237.304 334.5H236.696V335.5H237.304V334.5ZM242.075 326.386L236.879 334.736L237.728 335.264L242.925 326.914L242.075 326.386ZM248.121 334.736L242.925 326.386L242.075 326.914L247.272 335.264L248.121 334.736ZM248.304 334.5H247.696V335.5H248.304V334.5ZM253.075 326.386L247.879 334.736L248.728 335.264L253.925 326.914L253.075 326.386ZM259.121 334.736L253.925 326.386L253.075 326.914L258.272 335.264L259.121 334.736ZM259.304 334.5H258.696V335.5H259.304V334.5ZM264.075 326.386L258.879 334.736L259.728 335.264L264.925 326.914L264.075 326.386ZM270.121 334.736L264.925 326.386L264.075 326.914L269.272 335.264L270.121 334.736ZM270.304 334.5H269.696V335.5H270.304V334.5ZM275.075 326.386L269.879 334.736L270.728 335.264L275.925 326.914L275.075 326.386ZM281.121 334.736L275.925 326.386L275.075 326.914L280.272 335.264L281.121 334.736ZM281.304 334.5H280.696V335.5H281.304V334.5ZM286.075 326.386L280.879 334.736L281.728 335.264L286.925 326.914L286.075 326.386ZM292.121 334.736L286.925 326.386L286.075 326.914L291.272 335.264L292.121 334.736ZM292.304 334.5H291.696V335.5H292.304V334.5ZM297.075 326.386L291.879 334.736L292.728 335.264L297.925 326.914L297.075 326.386ZM303.121 334.736L297.925 326.386L297.075 326.914L302.272 335.264L303.121 334.736ZM303.304 334.5H302.696V335.5H303.304V334.5ZM308.075 326.386L302.879 334.736L303.728 335.264L308.925 326.914L308.075 326.386ZM314.121 334.736L308.925 326.386L308.075 326.914L313.272 335.264L314.121 334.736ZM314.304 334.5H313.696V335.5H314.304V334.5ZM319.075 326.386L313.879 334.736L314.728 335.264L319.925 326.914L319.075 326.386ZM325.121 334.736L319.925 326.386L319.075 326.914L324.272 335.264L325.121 334.736ZM325 334.5H324.696V335.5H325V334.5ZM328.5 331C328.5 332.933 326.933 334.5 325 334.5V335.5C327.485 335.5 329.5 333.485 329.5 331H328.5ZM328.5 177.278V331H329.5V177.278H328.5ZM318.5 168C318.5 173.435 323.237 177.778 329 177.778V176.778C323.717 176.778 319.5 172.813 319.5 168H318.5ZM329 158.222C323.237 158.222 318.5 162.565 318.5 168H319.5C319.5 163.187 323.717 159.222 329 159.222V158.222ZM328.5 5V158.722H329.5V5H328.5ZM325 1.5C326.933 1.5 328.5 3.067 328.5 5H329.5C329.5 2.51472 327.485 0.5 325 0.5V1.5ZM324.696 1.5H325V0.5H324.696V1.5ZM319.925 9.61416L325.121 1.26417L324.272 0.735828L319.075 9.08582L319.925 9.61416ZM313.879 1.26417L319.075 9.61416L319.925 9.08582L314.728 0.735828L313.879 1.26417ZM313.696 1.5H314.304V0.5H313.696V1.5ZM308.925 9.61416L314.121 1.26417L313.272 0.735828L308.075 9.08582L308.925 9.61416ZM302.879 1.26417L308.075 9.61416L308.925 9.08582L303.728 0.735828L302.879 1.26417ZM302.696 1.5H303.304V0.5H302.696V1.5ZM297.925 9.61416L303.121 1.26417L302.272 0.735828L297.075 9.08582L297.925 9.61416ZM291.879 1.26417L297.075 9.61416L297.925 9.08582L292.728 0.735828L291.879 1.26417ZM291.696 1.5H292.304V0.5H291.696V1.5ZM286.925 9.61416L292.121 1.26417L291.272 0.735828L286.075 9.08582L286.925 9.61416ZM280.879 1.26417L286.075 9.61416L286.925 9.08582L281.728 0.735828L280.879 1.26417ZM280.696 1.5H281.304V0.5H280.696V1.5ZM275.925 9.61416L281.121 1.26417L280.272 0.735828L275.075 9.08582L275.925 9.61416ZM269.879 1.26417L275.075 9.61416L275.925 9.08582L270.728 0.735828L269.879 1.26417ZM269.696 1.5H270.304V0.5H269.696V1.5ZM264.925 9.61416L270.121 1.26417L269.272 0.735828L264.075 9.08582L264.925 9.61416ZM258.879 1.26417L264.075 9.61416L264.925 9.08582L259.728 0.735828L258.879 1.26417ZM258.696 1.5H259.304V0.5H258.696V1.5ZM253.925 9.61416L259.121 1.26417L258.272 0.735828L253.075 9.08582L253.925 9.61416ZM247.879 1.26417L253.075 9.61416L253.925 9.08582L248.728 0.735827L247.879 1.26417ZM247.696 1.5H248.304V0.5H247.696V1.5ZM242.925 9.61416L248.121 1.26417L247.272 0.735827L242.075 9.08582L242.925 9.61416ZM236.879 1.26417L242.075 9.61416L242.925 9.08582L237.728 0.735827L236.879 1.26417ZM236.696 1.5H237.304V0.5H236.696V1.5ZM231.925 9.61416L237.121 1.26417L236.272 0.735827L231.075 9.08582L231.925 9.61416ZM225.879 1.26417L231.075 9.61416L231.925 9.08582L226.728 0.735827L225.879 1.26417ZM225.696 1.5H226.304V0.5H225.696V1.5ZM220.925 9.61416L226.121 1.26417L225.272 0.735827L220.075 9.08582L220.925 9.61416ZM214.879 1.26417L220.075 9.61416L220.925 9.08582L215.728 0.735827L214.879 1.26417ZM214.696 1.5H215.304V0.5H214.696V1.5ZM209.925 9.61416L215.121 1.26417L214.272 0.735827L209.075 9.08582L209.925 9.61416ZM203.879 1.26417L209.075 9.61416L209.925 9.08582L204.728 0.735827L203.879 1.26417ZM203.696 1.5H204.304V0.5H203.696V1.5ZM198.925 9.61416L204.121 1.26417L203.272 0.735827L198.075 9.08582L198.925 9.61416ZM192.879 1.26417L198.075 9.61416L198.925 9.08582L193.728 0.735827L192.879 1.26417ZM192.696 1.5H193.304V0.5H192.696V1.5ZM187.925 9.61416L193.121 1.26417L192.272 0.735827L187.075 9.08582L187.925 9.61416ZM181.879 1.26417L187.075 9.61416L187.925 9.08582L182.728 0.735827L181.879 1.26417ZM181.696 1.5H182.304V0.5H181.696V1.5ZM176.925 9.61416L182.121 1.26417L181.272 0.735827L176.075 9.08582L176.925 9.61416Z" fill="#E5E7EB"/>
</svg>
