    <svg xmlns="http://www.w3.org/2000/svg" width="20" height="20" viewBox="0 0 20 20" fill="none">
  <path d="M18.3332 8.33334H1.6665M9.1665 11.6667H4.99984M1.6665 6.83334L1.6665 13.1667C1.6665 14.1001 1.6665 14.5668 1.84816 14.9233C2.00795 15.2369 2.26292 15.4919 2.57652 15.6517C2.93304 15.8333 3.39975 15.8333 4.33317 15.8333L15.6665 15.8333C16.5999 15.8333 17.0666 15.8333 17.4232 15.6517C17.7368 15.4919 17.9917 15.2369 18.1515 14.9233C18.3332 14.5668 18.3332 14.1001 18.3332 13.1667V6.83334C18.3332 5.89992 18.3332 5.43321 18.1515 5.07669C17.9917 4.76309 17.7368 4.50812 17.4232 4.34833C17.0666 4.16667 16.5999 4.16667 15.6665 4.16667L4.33317 4.16667C3.39975 4.16667 2.93304 4.16667 2.57652 4.34833C2.26292 4.50812 2.00795 4.76308 1.84816 5.07669C1.6665 5.43321 1.6665 5.89992 1.6665 6.83334Z" stroke="#2E90FA" stroke-width="1.5" stroke-linecap="round" stroke-linejoin="round"/>
</svg>