<svg xmlns="http://www.w3.org/2000/svg" width="20" height="20" viewBox="0 0 20 20" fill="none">
  <path d="M7.49984 17.5V11.3333C7.49984 10.8666 7.49984 10.6333 7.59067 10.455C7.67056 10.2982 7.79805 10.1707 7.95485 10.0908C8.13311 10 8.36646 10 8.83317 10H11.1665C11.6332 10 11.8666 10 12.0448 10.0908C12.2016 10.1707 12.3291 10.2982 12.409 10.455C12.4998 10.6333 12.4998 10.8666 12.4998 11.3333V17.5M1.6665 7.91667L9.19984 2.26667C9.48672 2.0515 9.63016 1.94392 9.7877 1.90245C9.92676 1.86585 10.0729 1.86585 10.212 1.90245C10.3695 1.94392 10.513 2.05151 10.7998 2.26667L18.3332 7.91667M3.33317 6.66667V14.8333C3.33317 15.7668 3.33317 16.2335 3.51483 16.59C3.67462 16.9036 3.92959 17.1586 4.24319 17.3183C4.59971 17.5 5.06642 17.5 5.99984 17.5H13.9998C14.9333 17.5 15.4 17.5 15.7565 17.3183C16.0701 17.1586 16.3251 16.9036 16.4849 16.59C16.6665 16.2335 16.6665 15.7668 16.6665 14.8333V6.66667L11.5998 2.86667C11.0261 2.43634 10.7392 2.22118 10.4241 2.13824C10.146 2.06503 9.85368 2.06503 9.57556 2.13824C9.26049 2.22118 8.9736 2.43634 8.39984 2.86667L3.33317 6.66667Z" stroke="#2E90FA" stroke-width="1.5" stroke-linecap="round" stroke-linejoin="round"/>
</svg>