<svg width="32" height="32" viewBox="0 0 32 32" fill="none" xmlns="http://www.w3.org/2000/svg">
<g clip-path="url(#clip0_24_21313)">
<path d="M0.7555 11.1305C0.265375 12.666 -6.2489e-05 14.3018 1.10347e-08 15.9999C-6.2489e-05 17.698 0.265437 19.3339 0.755562 20.8694L16 21.5652L31.2444 20.8696C31.7345 19.334 32.0001 17.698 32.0001 16C32 14.3019 31.7346 12.666 31.2444 11.1304L16 10.4348L0.7555 11.1305Z" fill="#F0F0F0"/>
<path d="M31.2444 11.1305L16 10.4349L0.755496 11.1305C0.610246 11.5858 0.485184 12.0499 0.380371 12.5218H31.6194C31.5147 12.0499 31.3897 11.5856 31.2444 11.1305Z" fill="#D80027"/>
<path d="M0.380615 19.4782C0.485303 19.9501 0.610365 20.4142 0.755615 20.8694L0.757115 20.8695L16 21.5651L31.2444 20.8695C31.3897 20.4142 31.5147 19.9501 31.6195 19.4782H0.380615Z" fill="#D80027"/>
<path d="M16 31.9999C23.1385 31.9999 29.1841 27.3248 31.2444 20.8695H0.755615C2.81593 27.3247 8.86168 31.9999 16 31.9999Z" fill="#6DA544"/>
<path d="M15.9999 6.10358e-05C8.86156 0.000123536 2.81593 4.67531 0.755493 11.1305L31.2443 11.1306C29.1841 4.67525 23.1384 -1.46422e-06 15.9999 6.10358e-05Z" fill="#338AF3"/>
<path d="M7.3116 6.60883C7.3116 5.11027 8.36478 3.85839 9.77122 3.55127C9.5551 3.50402 9.33078 3.47845 9.10041 3.47845C7.37153 3.47845 5.96997 4.87995 5.96997 6.60889C5.96997 8.33783 7.37141 9.73933 9.10041 9.73933C9.33078 9.73933 9.55503 9.71371 9.77122 9.66652C8.36485 9.35927 7.3116 8.10739 7.3116 6.60883Z" fill="#F0F0F0"/>
<path d="M11.6215 8.03171L11.8334 8.6839H12.5191L11.9644 9.08702L12.1763 9.73921L11.6215 9.33615L11.0666 9.73921L11.2786 9.08702L10.7238 8.6839H11.4095L11.6215 8.03171Z" fill="#F0F0F0"/>
<path d="M13.8102 8.03171L14.0222 8.6839H14.7079L14.1531 9.08702L14.365 9.73921L13.8102 9.33615L13.2554 9.73921L13.4673 9.08702L12.9126 8.6839H13.5983L13.8102 8.03171Z" fill="#F0F0F0"/>
<path d="M15.9991 8.03171L16.2109 8.6839H16.8968L16.3419 9.08702L16.5538 9.73921L15.9991 9.33615L15.4442 9.73921L15.6562 9.08702L15.1013 8.6839H15.7871L15.9991 8.03171Z" fill="#F0F0F0"/>
<path d="M18.1878 8.03171L18.3997 8.6839H19.0854L18.5307 9.08702L18.7426 9.73921L18.1878 9.33615L17.6329 9.73921L17.8449 9.08702L17.29 8.6839H17.9758L18.1878 8.03171Z" fill="#F0F0F0"/>
<path d="M20.3766 8.03171L20.5886 8.6839H21.2743L20.7196 9.08702L20.9315 9.73921L20.3766 9.33615L19.8218 9.73921L20.0338 9.08702L19.479 8.6839H20.1647L20.3766 8.03171Z" fill="#F0F0F0"/>
<path d="M13.8102 5.755L14.0222 6.40713H14.7079L14.1531 6.81032L14.365 7.46244L13.8102 7.05938L13.2554 7.46244L13.4673 6.81032L12.9126 6.40713H13.5983L13.8102 5.755Z" fill="#F0F0F0"/>
<path d="M15.9991 5.755L16.2109 6.40713H16.8968L16.3419 6.81032L16.5538 7.46244L15.9991 7.05938L15.4442 7.46244L15.6562 6.81032L15.1013 6.40713H15.7871L15.9991 5.755Z" fill="#F0F0F0"/>
<path d="M18.1878 5.755L18.3997 6.40713H19.0854L18.5307 6.81032L18.7426 7.46244L18.1878 7.05938L17.6329 7.46244L17.8449 6.81032L17.29 6.40713H17.9758L18.1878 5.755Z" fill="#F0F0F0"/>
<path d="M20.3766 5.755L20.5886 6.40713H21.2743L20.7196 6.81032L20.9315 7.46244L20.3766 7.05938L19.8218 7.46244L20.0338 6.81032L19.479 6.40713H20.1647L20.3766 5.755Z" fill="#F0F0F0"/>
<path d="M15.9991 3.47827L16.2109 4.13052H16.8968L16.3419 4.53358L16.5538 5.18583L15.9991 4.78277L15.4442 5.18583L15.6562 4.53358L15.1013 4.13052H15.7871L15.9991 3.47827Z" fill="#F0F0F0"/>
<path d="M18.1878 3.47827L18.3997 4.13052H19.0854L18.5307 4.53358L18.7426 5.18583L18.1878 4.78277L17.6329 5.18583L17.8449 4.53358L17.29 4.13052H17.9758L18.1878 3.47827Z" fill="#F0F0F0"/>
<path d="M20.3766 3.47827L20.5886 4.13052H21.2743L20.7196 4.53358L20.9315 5.18583L20.3766 4.78277L19.8218 5.18583L20.0338 4.53358L19.479 4.13052H20.1647L20.3766 3.47827Z" fill="#F0F0F0"/>
</g>
<defs>
<clipPath id="clip0_24_21313">
<rect width="32" height="32" fill="white"/>
</clipPath>
</defs>
</svg>
