<svg xmlns="http://www.w3.org/2000/svg" width="32" height="32" viewBox="0 0 32 32" fill="none">
  <path d="M25.5238 16V8.95238C25.5238 7.87302 24.8762 5.71429 22.2857 5.71429H20.3809C20 5.71429 19.2381 5.33334 18.6667 4.76191C18.2857 4.38095 17.6381 3.42857 15.8095 3.42857H12C10.1714 3.42857 9.5238 4.38095 9.14285 4.76191C8.57142 5.33334 7.80951 5.71429 7.42856 5.71429H5.5238C2.93332 5.71429 2.28571 7.87302 2.28571 8.95238V21.1429C2.28571 23.7333 4.44444 24.381 5.5238 24.381H17.1428M21.3333 24.381H29.7143M25.5238 20.1905V28.5714M18.4762 14.6667C18.4762 17.1914 16.4295 19.2381 13.9048 19.2381C11.38 19.2381 9.33332 17.1914 9.33332 14.6667C9.33332 12.1419 11.38 10.0952 13.9048 10.0952C16.4295 10.0952 18.4762 12.1419 18.4762 14.6667Z" stroke="white" stroke-width="2" stroke-linecap="round"/>
</svg>