<svg xmlns="http://www.w3.org/2000/svg" width="80" height="80" viewBox="0 0 80 80" fill="none">
  <g clip-path="url(#clip0_379_6110)">
    <path d="M20.8318 61.7705C15.4953 61.7705 10.7485 58.3537 9.02485 53.2669L8.90827 52.8836C8.50177 51.5365 8.33147 50.4037 8.33147 49.2702V26.5426L0.244728 53.5367C-0.795337 57.5071 1.57472 61.6234 5.55125 62.7203L57.0961 76.5243C57.7394 76.691 58.3828 76.7709 59.0163 76.7709C62.3361 76.7709 65.3696 74.5675 66.2199 71.3203L69.2229 61.7705H20.8318Z" fill="#98A2B3"/>
    <path d="M29.9991 26.7697C33.6759 26.7697 36.6655 23.7795 36.6655 20.1027C36.6655 16.4258 33.6759 13.4356 29.9991 13.4356C26.3222 13.4356 23.332 16.4258 23.332 20.1027C23.332 23.7795 26.3222 26.7697 29.9991 26.7697Z" fill="#98A2B3"/>
    <path d="M71.6666 3.43539H21.6654C17.0724 3.43539 13.332 7.17572 13.332 11.7693V48.4365C13.332 53.0301 17.0724 56.7704 21.6654 56.7704H71.6666C76.2602 56.7704 80.0005 53.0301 80.0005 48.4365V11.7693C80.0005 7.17572 76.2602 3.43539 71.6666 3.43539ZM21.6654 10.1024H71.6666C72.587 10.1024 73.3335 10.8489 73.3335 11.7693V35.4332L62.8035 23.146C61.6865 21.8361 60.0696 21.136 58.3331 21.0963C56.6064 21.1061 54.9865 21.8727 53.8799 23.1997L41.4992 38.0597L37.4659 34.0361C35.1862 31.7564 31.4758 31.7564 29.1991 34.0361L19.9991 43.2331V11.7693C19.9991 10.8489 20.7455 10.1024 21.6654 10.1024Z" fill="#98A2B3"/>
  </g>
  <defs>
    <clipPath id="clip0_379_6110">
      <rect width="80" height="80" fill="white"/>
    </clipPath>
  </defs>
</svg>