<svg xmlns="http://www.w3.org/2000/svg" width="182" height="151" viewBox="0 0 182 151" fill="none">
  <path d="M6.91846 69.3185V70.8602" stroke="#D2D8DF" stroke-width="2.921" stroke-linecap="round"/>
  <path d="M3.46875 70.1535L4.72404 71.4503" stroke="#D2D8DF" stroke-width="2.921" stroke-linecap="round"/>
  <path d="M2 73.6056H3.77496" stroke="#D2D8DF" stroke-width="2.921" stroke-linecap="round"/>
  <path d="M3.32397 77.119L4.57926 75.8222" stroke="#D2D8DF" stroke-width="2.921" stroke-linecap="round"/>
  <path d="M6.91846 77.5407V75.999" stroke="#D2D8DF" stroke-width="2.921" stroke-linecap="round"/>
  <path d="M9.47872 76.513L8.45459 75.4852" stroke="#D2D8DF" stroke-width="2.921" stroke-linecap="round"/>
  <path d="M11.5265 73.9433H9.99036" stroke="#D2D8DF" stroke-width="2.921" stroke-linecap="round"/>
  <path d="M10.5024 70.3464L9.47827 71.3742" stroke="#D2D8DF" stroke-width="2.921" stroke-linecap="round"/>
  <path d="M89.3603 2V3.02776" stroke="#D2D8DF" stroke-width="2.921" stroke-linecap="round"/>
  <path d="M86.2882 5.08328H87.3123" stroke="#D2D8DF" stroke-width="2.921" stroke-linecap="round"/>
  <path d="M89.3603 8.1665V7.13873" stroke="#D2D8DF" stroke-width="2.921" stroke-linecap="round"/>
  <path d="M91.9212 5.08328H90.897" stroke="#D2D8DF" stroke-width="2.921" stroke-linecap="round"/>
  <path d="M29.9612 45.166V46.7077" stroke="#D2D8DF" stroke-width="2.921" stroke-linecap="round"/>
  <path d="M25.3535 49.791H26.8896" stroke="#D2D8DF" stroke-width="2.921" stroke-linecap="round"/>
  <path d="M29.9612 53.902V52.3603" stroke="#D2D8DF" stroke-width="2.921" stroke-linecap="round"/>
  <path d="M34.0574 49.791H32.5212" stroke="#D2D8DF" stroke-width="2.921" stroke-linecap="round"/>
  <path d="M140.185 101.199C141.409 101.199 142.401 102.195 142.401 103.424C142.401 104.653 141.409 105.648 140.185 105.648C138.961 105.648 137.969 104.653 137.969 103.424" stroke="#D2D8DF" stroke-width="2.921" stroke-linecap="round"/>
  <path fill-rule="evenodd" clip-rule="evenodd" d="M150.327 81.0163C151.643 80.6043 153.66 78.9893 154.127 77.2516C154.551 78.7877 156.326 80.6043 157.927 80.7418C156.124 81.3824 154.401 83.2854 154.127 84.7805C153.941 83.2566 151.557 81.2384 150.327 81.0163" fill="#EBECEE"/>
  <path fill-rule="evenodd" clip-rule="evenodd" d="M15.2509 100.514C15.909 100.308 16.9171 99.5007 17.1506 98.6319C17.3623 99.3995 18.2496 100.308 19.0503 100.377C18.1491 100.697 17.2875 101.649 17.1506 102.396C17.0576 101.634 15.8655 100.625 15.2509 100.514" fill="#EBECEE"/>
  <path fill-rule="evenodd" clip-rule="evenodd" d="M27.4649 29.0287C27.4649 29.9817 26.6954 30.7537 25.7464 30.7537C24.797 30.7537 24.028 29.9817 24.028 29.0287C24.028 28.0761 24.797 27.3037 25.7464 27.3037C26.6954 27.3037 27.4649 28.0761 27.4649 29.0287" fill="#D1D8DF"/>
  <path fill-rule="evenodd" clip-rule="evenodd" d="M142.216 33.6608C142.216 35.2531 140.929 36.544 139.344 36.544C137.757 36.544 136.471 35.2531 136.471 33.6608C136.471 32.0685 137.757 30.7776 139.344 30.7776C140.929 30.7776 142.216 32.0685 142.216 33.6608" fill="#EBECEE"/>
  <path fill-rule="evenodd" clip-rule="evenodd" d="M182 25.8488C182 27.1121 180.98 28.1359 179.722 28.1359C178.464 28.1359 177.444 27.1121 177.444 25.8488C177.444 24.5855 178.464 23.5617 179.722 23.5617C180.98 23.5617 182 24.5855 182 25.8488" fill="#EBECEE"/>
  <path fill-rule="evenodd" clip-rule="evenodd" d="M59.581 132.664C59.581 133.46 58.938 134.105 58.1447 134.105C57.3518 134.105 56.7088 133.46 56.7088 132.664C56.7088 131.867 57.3518 131.222 58.1447 131.222C58.938 131.222 59.581 131.867 59.581 132.664Z" stroke="#D2D8DF" stroke-width="2.921" stroke-linecap="round"/>
  <path fill-rule="evenodd" clip-rule="evenodd" d="M58.7263 17.9467C58.7263 18.8998 57.9568 19.6717 57.0078 19.6717C56.0588 19.6717 55.2894 18.8998 55.2894 17.9467C55.2894 16.9941 56.0588 16.2217 57.0078 16.2217C57.9568 16.2217 58.7263 16.9941 58.7263 17.9467Z" stroke="#D2D8DF" stroke-width="2.921" stroke-linecap="round"/>
  <path fill-rule="evenodd" clip-rule="evenodd" d="M102.561 148.629C101.463 149.048 100.234 148.495 99.8159 147.393C99.3981 146.291 99.9494 145.056 101.048 144.638C102.146 144.218 103.375 144.772 103.792 145.874C104.21 146.976 103.659 148.21 102.561 148.629Z" stroke="#D2D8DF" stroke-width="2.921" stroke-linecap="round"/>
  <path fill-rule="evenodd" clip-rule="evenodd" d="M101.907 107.86H59.9149C56.9593 107.86 54.54 105.424 54.54 102.448V42.3537C54.54 39.3777 56.9593 36.9438 59.9149 36.9438H101.907C104.863 36.9438 107.283 39.3777 107.283 42.3537V102.448C107.283 105.424 104.863 107.86 101.907 107.86" fill="#E0E2EE"/>
  <path fill-rule="evenodd" clip-rule="evenodd" d="M98.3216 110.429H56.3299C53.3744 110.429 50.9551 107.994 50.9551 105.018V44.9232C50.9551 41.9472 53.3744 39.5133 56.3299 39.5133H98.3216C101.278 39.5133 103.698 41.9472 103.698 44.9232V105.018C103.698 107.994 101.278 110.429 98.3216 110.429" fill="#E8EBF2"/>
  <path fill-rule="evenodd" clip-rule="evenodd" d="M94.8347 112.457H52.7563C49.7947 112.457 47.3704 110.032 47.3704 107.069V47.2228C47.3704 44.2591 49.7947 41.8353 52.7563 41.8353H94.8347C97.7976 41.8353 100.222 44.2591 100.222 47.2228V107.069C100.222 110.032 97.7976 112.457 94.8347 112.457" fill="#D8DBEA"/>
  <path fill-rule="evenodd" clip-rule="evenodd" d="M94.8347 112.457H52.7563C49.7947 112.457 47.3704 110.032 47.3704 107.069V47.2228C47.3704 44.2591 49.7947 41.8353 52.7563 41.8353H94.8347C97.7976 41.8353 100.222 44.2591 100.222 47.2228V107.069C100.222 110.032 97.7976 112.457 94.8347 112.457" fill="#F1F2F7"/>
  <path fill-rule="evenodd" clip-rule="evenodd" d="M88.77 60.0686H57.69C56.8024 60.0686 56.0759 59.3749 56.0759 58.5275C56.0759 57.6789 56.8024 56.9853 57.69 56.9853H88.77C89.6576 56.9853 90.3841 57.6789 90.3841 58.5275C90.3841 59.3749 89.6576 60.0686 88.77 60.0686" fill="#E0E2EE"/>
  <path fill-rule="evenodd" clip-rule="evenodd" d="M88.77 69.3183H57.69C56.8024 69.3183 56.0759 68.6247 56.0759 67.7773C56.0759 66.9287 56.8024 66.235 57.69 66.235H88.77C89.6576 66.235 90.3841 66.9287 90.3841 67.7773C90.3841 68.6247 89.6576 69.3183 88.77 69.3183" fill="#E0E2EE"/>
  <path fill-rule="evenodd" clip-rule="evenodd" d="M88.77 78.5685H57.69C56.8024 78.5685 56.0759 77.8749 56.0759 77.0275C56.0759 76.18 56.8024 75.4852 57.69 75.4852H88.77C89.6576 75.4852 90.3841 76.18 90.3841 77.0275C90.3841 77.8749 89.6576 78.5685 88.77 78.5685" fill="#E0E2EE"/>
  <path fill-rule="evenodd" clip-rule="evenodd" d="M88.77 87.8181H57.69C56.8024 87.8181 56.0759 87.1244 56.0759 86.277C56.0759 85.4285 56.8024 84.7348 57.69 84.7348H88.77C89.6576 84.7348 90.3841 85.4285 90.3841 86.277C90.3841 87.1244 89.6576 87.8181 88.77 87.8181" fill="#E0E2EE"/>
  <path fill-rule="evenodd" clip-rule="evenodd" d="M73.9132 97.068H57.6969C56.8055 97.068 56.0759 96.3744 56.0759 95.527C56.0759 94.6784 56.8055 93.9847 57.6969 93.9847H73.9132C74.8046 93.9847 75.5343 94.6784 75.5343 95.527C75.5343 96.3744 74.8046 97.068 73.9132 97.068" fill="#E0E2EE"/>
  <path fill-rule="evenodd" clip-rule="evenodd" d="M106.645 85.1134C100.43 91.3492 90.8092 92.0526 83.8242 87.2382C82.9316 86.6119 82.0819 85.9084 81.2896 85.1134C80.8817 84.7054 80.4973 84.2844 80.135 83.8411C79.4104 82.9559 78.7758 82.0119 78.2558 81.0364C77.3397 79.3889 76.7168 77.6407 76.3767 75.8336C75.2794 70.1667 76.9201 64.0669 81.2896 59.6839C85.6695 55.2879 91.7487 53.6521 97.3966 54.7427C99.1963 55.0944 100.94 55.7194 102.582 56.6282C103.555 57.1616 104.483 57.7984 105.367 58.5254C105.807 58.8876 106.227 59.2747 106.633 59.6839C107.427 60.4789 108.139 61.3302 108.751 62.2271C113.551 69.2344 112.848 78.8894 106.645 85.1134" fill="white" fill-opacity="0.1"/>
  <path fill-rule="evenodd" clip-rule="evenodd" d="M104.906 83.8855C98.4401 90.3753 87.962 90.374 81.4952 83.8855C75.0368 77.4041 75.0368 66.8877 81.5037 60.3991C87.962 53.9178 98.4401 53.9178 104.898 60.3991C111.364 66.8877 111.364 77.4041 104.906 83.8855M108.223 57.0653C99.924 48.7366 86.4754 48.7366 78.1763 57.0653C69.8783 65.3927 69.8711 78.8975 78.169 87.2262C85.7223 94.8039 97.5611 95.4872 105.888 89.2655C106.701 88.657 107.484 87.9748 108.232 87.2262C108.978 86.4764 109.657 85.6904 110.263 84.8742C116.462 76.5165 115.775 64.6441 108.223 57.0653" fill="#E0E2EE"/>
  <path fill-rule="evenodd" clip-rule="evenodd" d="M140.885 118.621L140.536 118.971C138.231 121.285 134.457 121.285 132.15 118.971L110.867 97.6114L119.601 88.8459L140.885 110.205C143.191 112.52 143.191 116.307 140.885 118.621" fill="url(#paint0_linear_672_4401)"/>
  <path fill-rule="evenodd" clip-rule="evenodd" d="M110.722 84.2211L117.011 90.5329L112.546 95.0126L106.258 88.7009C107.088 88.0799 107.886 87.3838 108.649 86.6199C109.411 85.8561 110.104 85.054 110.722 84.2211" fill="#E0E2EE"/>
  <path fill-rule="evenodd" clip-rule="evenodd" d="M140.566 109.943L131.888 118.651L130.325 117.082L139.003 108.373L140.566 109.943Z" fill="#EF545F"/>
  <path fill-rule="evenodd" clip-rule="evenodd" d="M120.084 89.1474L111.167 98.0957L109.843 96.7664L118.759 87.8181L120.084 89.1474Z" fill="url(#paint1_linear_672_4401)"/>
  <path fill-rule="evenodd" clip-rule="evenodd" d="M100.626 58.1665L78.7588 80.11C77.9353 78.6288 77.3754 77.0571 77.0708 75.4326L95.9646 56.4714C97.5824 56.7888 99.1497 57.3495 100.626 58.1665" fill="white" fill-opacity="0.5"/>
  <path fill-rule="evenodd" clip-rule="evenodd" d="M107.794 63.3821L84.1534 85.7625C83.3068 85.2032 82.501 84.5737 81.7496 83.8623C81.3627 83.496 80.9969 83.1204 80.6545 82.7238L104.583 60.0684C105.002 60.3937 105.4 60.7401 105.786 61.1063C106.537 61.8177 107.213 62.5794 107.794 63.3821" fill="white" fill-opacity="0.5"/>
  <defs>
    <linearGradient id="paint0_linear_672_4401" x1="126.741" y1="72.9156" x2="94.88" y2="104.663" gradientUnits="userSpaceOnUse">
      <stop stop-color="#FF8960"/>
      <stop offset="1" stop-color="#FF62A5"/>
    </linearGradient>
    <linearGradient id="paint1_linear_672_4401" x1="114.963" y1="82.6793" x2="104.686" y2="92.9205" gradientUnits="userSpaceOnUse">
      <stop stop-color="#FF404E"/>
      <stop offset="1" stop-color="#FF62A5"/>
    </linearGradient>
  </defs>
</svg>